 <svg
        width="18"
        height="18"
        viewBox="0 0 18 18"
        fill="none"
        xmlns="http://www.w3.org/2000/svg">
        <path
          d="M0.5 4C0.5 2.067 2.067 0.5 4 0.5H14C15.933 0.5 17.5 2.067 17.5 4V14C17.5 15.933 15.933 17.5 14 17.5H4C2.067 17.5 0.5 15.933 0.5 14V4Z"
          stroke="#F3862E"
        />
        <path
          d="M11.9151 11.8906C11.7849 12.0208 11.5738 12.0208 11.4437 11.8906L9.0122 9.45919L6.58075 11.8906C6.45058 12.0208 6.23952 12.0208 6.10935 11.8906C5.97917 11.7605 5.97917 11.5494 6.10935 11.4192L8.5408 8.98779L6.10936 6.55635C5.97918 6.42615 5.97918 6.21512 6.10936 6.08492C6.23953 5.95475 6.45059 5.95475 6.58076 6.08492L9.0122 8.51639L11.4437 6.08492C11.5738 5.95475 11.7849 5.95475 11.9151 6.08492C12.0452 6.21512 12.0452 6.42615 11.9151 6.55632L9.4836 8.98779L11.9151 11.4192C12.0452 11.5494 12.0452 11.7605 11.9151 11.8906Z"
          fill="#F5862D"
        />
      </svg>