<svg width="15" height="15" viewBox="0 0 15 15" fill="none" xmlns="http://www.w3.org/2000/svg">
<path d="M7.49935 1.16701H2.74935C1.8749 1.16701 1.16602 1.87589 1.16602 2.75034V12.2504C1.16602 13.1248 1.8749 13.8337 2.74935 13.8337H12.2493C13.1238 13.8337 13.8327 13.1248 13.8327 12.2504V7.50037M12.5773 4.66159L13.4368 3.80203C14.0551 3.1837 14.0551 2.18119 13.4368 1.56287C12.8185 0.944537 11.816 0.944537 11.1976 1.56288L10.3381 2.42242M12.5773 4.66159L7.79852 9.44035C7.57749 9.66138 7.29597 9.81211 6.98952 9.87339L4.66061 10.3391L5.12638 8.01028C5.18769 7.70375 5.33835 7.42223 5.55938 7.2012L10.3381 2.42242M12.5773 4.66159L10.3381 2.42242" stroke="#F5862D" stroke-width="1.41667" stroke-linecap="round" stroke-linejoin="round"/>
</svg>
