<svg width="9" height="9" viewBox="0 0 9 9" fill="none" xmlns="http://www.w3.org/2000/svg">
<path d="M8.50773 0.525572C8.32875 0.346579 8.03854 0.346579 7.85956 0.525572L4.51629 3.86883L1.17305 0.525572C0.994061 0.346579 0.703858 0.346579 0.52487 0.525572C0.345877 0.70456 0.345877 0.994763 0.52487 1.17375L3.86812 4.51701L0.524879 7.86023C0.345886 8.03925 0.345886 8.32943 0.524879 8.50845C0.703867 8.68743 0.99407 8.68743 1.17306 8.50845L4.51629 5.16518L7.85956 8.50845C8.03854 8.68743 8.32875 8.68743 8.50773 8.50845C8.68671 8.32943 8.68671 8.03925 8.50773 7.86027L5.16447 4.51701L8.50773 1.17375C8.68671 0.994763 8.68671 0.70456 8.50773 0.525572Z" fill="#F4862E"/>
</svg>
